<svg width="61" height="54" viewBox="0 0 61 54" fill="none" xmlns="http://www.w3.org/2000/svg">
<path d="M59.0857 7.98845C59.0821 7.98845 59.0784 7.98799 59.0748 7.98799H43.1808V6.2328C43.1808 3.32942 40.8215 0.967224 37.9218 0.967224H23.8977C20.9979 0.967224 18.6387 3.32942 18.6387 6.2328V7.98799H2.74471C1.76868 7.98799 0.991699 8.7888 0.991699 9.74318V48.3574C0.991699 51.2608 3.35096 53.623 6.25073 53.623H55.5687C58.4685 53.623 60.8278 51.2608 60.8278 48.3574V9.7802C60.8278 9.77792 60.8278 9.77563 60.8278 9.77335C60.7607 8.62059 60.0526 7.99485 59.0857 7.98845ZM22.1447 6.2328C22.1447 5.26516 22.9313 4.47761 23.8977 4.47761H37.9218C38.8882 4.47761 39.6748 5.26516 39.6748 6.2328V7.98799H22.1447V6.2328ZM56.6425 11.4984L51.1985 27.85C50.9598 28.5681 50.2914 29.0503 49.5359 29.0503H39.6748V27.2951C39.6748 26.3256 38.89 25.5399 37.9218 25.5399H23.8977C22.9294 25.5399 22.1447 26.3256 22.1447 27.2951V29.0503H12.2835C11.528 29.0503 10.8597 28.5681 10.6209 27.85L5.17701 11.4984H56.6425ZM36.1688 29.0503V32.5607H25.6507V29.0503H36.1688ZM57.3217 48.3574C57.3217 49.325 56.5352 50.1126 55.5687 50.1126H6.25073C5.28429 50.1126 4.49772 49.325 4.49772 48.3574V20.5591L7.29477 28.9602C8.0115 31.114 10.0165 32.5607 12.2835 32.5607H22.1447V34.3159C22.1447 35.2853 22.9294 36.0711 23.8977 36.0711H37.9218C38.89 36.0711 39.6748 35.2853 39.6748 34.3159V32.5607H49.5359C51.803 32.5607 53.808 31.114 54.5247 28.9602L57.3217 20.5591V48.3574Z" fill="black"/>
</svg>
