<svg width="62" height="52" viewBox="0 0 62 52" fill="none" xmlns="http://www.w3.org/2000/svg">
<path d="M60.1836 36.8984H58.3672V6.01953C58.3672 3.01489 55.9226 0.570312 52.918 0.570312H9.08203C6.07739 0.570312 3.64511 3.01489 3.64511 6.01953V36.8984H1.8287C0.825424 36.8984 0 37.7116 0 38.7148V42.3477C0 47.3555 4.07414 51.4297 9.08203 51.4297H52.918C57.9259 51.4297 62 47.3555 62 42.3477V38.7148C62 37.7116 61.1869 36.8984 60.1836 36.8984ZM7.26562 6.01953C7.26562 5.01814 8.08064 4.20312 9.08203 4.20312H52.918C53.9194 4.20312 54.7467 5.01814 54.7467 6.01953V36.8984H42.0195C41.0167 36.8984 40.2154 37.7116 40.2154 38.7148V38.7172V40.5312H21.7969V38.7148C21.7969 37.7116 20.9837 36.8984 19.9805 36.8984H7.26562V6.01953ZM58.3795 42.3477C58.3795 45.3523 55.9226 47.7969 52.918 47.7969H9.08203C6.07739 47.7969 3.63281 45.3523 3.63281 42.3477V40.5312H18.1764V42.3477C18.1764 43.3509 18.9772 44.1641 19.9805 44.1641H42.0195C43.0228 44.1641 43.8359 43.3509 43.8359 42.3477V40.5312H58.3795V42.3477Z" fill="black"/>
</svg>
