<svg width="50" height="51" viewBox="0 0 50 51" fill="none" xmlns="http://www.w3.org/2000/svg">
<path d="M42.498 4.3011L38.2813 8.6022V1.49414C38.2813 0.668861 37.6255 0 36.8164 0H10.2539C9.86633 0 9.49097 0.159141 9.21784 0.437736L0.429153 9.40219C0.151443 9.68546 0 10.0707 0 10.459V43.5293C0 47.6487 3.2856 51 7.32422 51H36.8164C40.855 51 44.1406 47.6487 44.1406 43.5293V40.541C44.1406 39.7157 43.4849 39.0469 42.6758 39.0469H38.2813V21.2806L48.7129 10.6403C50.4261 8.89247 50.4261 6.04893 48.7129 4.3011C46.9955 2.54938 44.2158 2.54938 42.498 4.3011ZM8.78906 5.10148V8.96484H5.00145L8.78906 5.10148ZM11.7188 40.541V43.5293C11.7188 46.0009 9.74732 48.0117 7.32422 48.0117C4.90112 48.0117 2.92969 46.0009 2.92969 43.5293C2.92969 42.9811 2.92969 13.1582 2.92969 11.9531H10.2539C11.063 11.9531 11.7188 11.2843 11.7188 10.459V2.98828H35.3516V11.5905L32.0663 14.9414H7.32422C6.51512 14.9414 5.85938 15.6103 5.85938 16.4355C5.85938 17.2608 6.51512 17.9297 7.32422 17.9297H29.1367L26.207 20.918H7.32422C6.51512 20.918 5.85938 21.5868 5.85938 22.4121C5.85938 23.2374 6.51512 23.9062 7.32422 23.9062H23.2773L21.7083 25.5066C21.5477 25.6708 21.4264 25.8704 21.3547 26.0907L21.0918 26.8945H7.32422C6.51512 26.8945 5.85938 27.5634 5.85938 28.3887C5.85938 29.214 6.51512 29.8828 7.32422 29.8828H20.1153L19.3924 32.0952L18.6314 32.8711H7.32422C6.51512 32.8711 5.85938 33.54 5.85938 34.3652C5.85938 35.1905 6.51512 35.8594 7.32422 35.8594H19.035C19.5061 35.8594 19.8895 35.8142 20.274 35.4216L21.4638 34.208L27.3506 32.2065C27.5661 32.1334 27.7622 32.0096 27.9232 31.8458L35.3516 24.2689V39.0469H13.1836C12.3745 39.0469 11.7188 39.7157 11.7188 40.541ZM27.5982 27.9509L26.096 29.4832L22.9885 30.54L24.0246 27.3704L25.5264 25.8381L27.5982 27.9509ZM41.2109 42.0352V43.5293C41.2109 46.0009 39.2395 48.0117 36.8164 48.0117H13.1802C14.1014 46.7623 14.6484 45.2094 14.6484 43.5293V42.0352H41.2109ZM43.5333 11.6971L29.67 25.8381L27.5982 23.7249L41.4616 9.58429L43.5333 11.6971ZM46.6412 8.52711L45.6047 9.58429L43.5333 7.47148L44.5694 6.4143C45.1408 5.83182 46.0701 5.83182 46.6412 6.4143C47.2122 6.99678 47.2122 7.94463 46.6412 8.52711Z" fill="black"/>
</svg>
